<svg width="9" height="18" viewBox="0 0 9 18" fill="none" xmlns="http://www.w3.org/2000/svg">
<path d="M7.135 17.1666C6.9607 17.1672 6.78849 17.1288 6.63102 17.0541C6.47354 16.9794 6.3348 16.8703 6.225 16.735L0.589999 9.73498C0.418404 9.52622 0.324596 9.26437 0.324596 8.99414C0.324596 8.72391 0.418404 8.46206 0.589999 8.25331L6.42333 1.25331C6.62136 1.01506 6.90592 0.865228 7.21442 0.836785C7.52292 0.808342 7.83008 0.903614 8.06833 1.10164C8.30658 1.29967 8.45641 1.58423 8.48485 1.89273C8.5133 2.20123 8.41803 2.50839 8.22 2.74664L3.005 8.99998L8.045 15.2533C8.18766 15.4246 8.27828 15.6331 8.30614 15.8542C8.334 16.0754 8.29793 16.2999 8.2022 16.5011C8.10647 16.7024 7.95508 16.8721 7.76595 16.99C7.57683 17.108 7.35787 17.1692 7.135 17.1666Z" fill="#FF0000"/>
</svg>
