<svg width="26" height="23" viewBox="0 0 26 23" fill="none" xmlns="http://www.w3.org/2000/svg">
<path d="M18.6438 2.25C19.2808 2.24946 19.9116 2.37611 20.4991 2.62253C21.0866 2.86894 21.6189 3.23016 22.065 3.685C22.9841 4.61808 23.4993 5.87526 23.4993 7.185C23.4993 8.49474 22.9841 9.75192 22.065 10.685L13 19.8638L3.935 10.685C3.01589 9.75192 2.50069 8.49474 2.50069 7.185C2.50069 5.87526 3.01589 4.61808 3.935 3.685C4.38133 3.23048 4.91376 2.86946 5.50117 2.62301C6.08859 2.37656 6.71923 2.24963 7.35625 2.24963C7.99327 2.24963 8.62391 2.37656 9.21133 2.62301C9.79875 2.86946 10.3312 3.23048 10.7775 3.685L13 5.96L15.2138 3.7025C15.6585 3.24224 16.1914 2.87638 16.7808 2.62681C17.3701 2.37724 18.0037 2.24908 18.6438 2.25ZM18.6438 0.500002C17.7737 0.499265 16.9122 0.672251 16.1099 1.00882C15.3075 1.34538 14.5804 1.83875 13.9713 2.46L13 3.44L12.0288 2.46C11.4188 1.83987 10.6916 1.34736 9.88937 1.01117C9.08716 0.674978 8.22606 0.501835 7.35625 0.501835C6.48645 0.501835 5.62534 0.674978 4.82314 1.01117C4.02093 1.34736 3.29367 1.83987 2.68375 2.46C1.4429 3.72317 0.747635 5.42307 0.747635 7.19375C0.747635 8.96444 1.4429 10.6643 2.68375 11.9275L13 22.375L23.3163 11.9275C24.5571 10.6643 25.2524 8.96444 25.2524 7.19375C25.2524 5.42307 24.5571 3.72317 23.3163 2.46C22.7065 1.83954 21.9793 1.34669 21.1771 1.01018C20.3749 0.673672 19.5137 0.500242 18.6438 0.500002Z" fill="black"/>
</svg>
