<svg width="30" height="30" viewBox="0 0 30 30" fill="none" xmlns="http://www.w3.org/2000/svg">
<path d="M28.661 12.5139L16.2341 1.47507C15.8886 1.16827 15.4512 1 14.9992 1C14.5473 1 14.1099 1.16827 13.7644 1.47507L1.33977 12.5139C1.18983 12.6473 1.08242 12.826 1.03207 13.0258C0.981711 13.2256 0.990837 13.4369 1.05821 13.631C1.12559 13.8252 1.24796 13.9929 1.40878 14.1114C1.5696 14.2299 1.76111 14.2936 1.9574 14.2938H5.24464V28.2029C5.24464 28.4143 5.32438 28.6171 5.46633 28.7665C5.60828 28.916 5.8008 29 6.00154 29H12.2808V24.0509C12.2661 23.2974 12.5237 22.5662 13.0014 22.0051C13.4792 21.444 14.1415 21.0949 14.8543 21.0284C15.2233 21.0076 15.5924 21.0662 15.9391 21.2005C16.2859 21.3349 16.603 21.5423 16.8711 21.81C17.1393 22.0776 17.3528 22.4001 17.4988 22.7575C17.6447 23.115 17.72 23.5 17.7199 23.8891V29H23.9992C24.2 29 24.3925 28.916 24.5344 28.7665C24.6764 28.6171 24.7561 28.4143 24.7561 28.2029V14.2938H28.0426C28.2389 14.2936 28.4304 14.2299 28.5912 14.1114C28.752 13.9929 28.8744 13.8252 28.9418 13.631C29.0092 13.4369 29.0183 13.2256 28.9679 13.0258C28.9176 12.826 28.8102 12.6473 28.6602 12.5139H28.661Z" stroke="black" stroke-width="2" stroke-linecap="round" stroke-linejoin="round"/>
</svg>
